<?xml version="1.0" encoding="UTF-8" standalone="no"?>
<svg width="39px" height="36px" viewBox="0 0 39 36" version="1.1" xmlns="http://www.w3.org/2000/svg" xmlns:xlink="http://www.w3.org/1999/xlink" xmlns:sketch="http://www.bohemiancoding.com/sketch/ns">
    <!-- Generator: Sketch 3.3.1 (12002) - http://www.bohemiancoding.com/sketch -->
    <title>Imported Layers</title>
    <desc>Created with Sketch.</desc>
    <defs></defs>
    <g id="Home" stroke="none" stroke-width="1" fill="none" fill-rule="evenodd" sketch:type="MSPage">
        <g id="Home-Copy-4" sketch:type="MSArtboardGroup" transform="translate(-67.000000, -151.000000)" fill="#8DB8ED">
            <path d="M106,151.042222 L101.935763,151 L85.8940486,166.879305 L81.8588972,162.781853 C80.627604,161.563173 79.0918809,160.755198 77.4223636,160.425099 L77.4223636,151.103636 L74.5196142,151.103636 L74.5196142,160.348331 C70.2808631,160.924086 67,164.520631 67,168.873334 C67,173.224118 70.2808631,176.820663 74.5196142,177.396418 L74.5196142,186.886768 L77.4223636,186.886768 L77.4223636,177.310054 C79.2974196,176.939652 81.0018396,175.978143 82.2195595,174.57714 L85.866902,170.970999 L101.639089,186.990404 L105.75568,187 L87.92035,168.936667 L106,151.042222 L106,151.042222 Z M80.2365044,172.895854 C78.6352656,174.826753 75.993806,175.569094 73.5529882,174.528599 C71.7550035,173.761919 70.4323257,172.025733 70.0933773,170.033987 C69.5187235,166.646802 71.6653964,163.644985 74.6360645,163 L74.6360645,168.875854 C74.6360645,169.69324 75.2711057,170.354451 76.0541933,170.354451 C76.8392289,170.354451 77.4742701,169.69324 77.4742701,168.875854 L77.4742701,163.141978 C78.3937162,163.423905 79.2430351,163.912715 79.9326197,164.630717 L84,168.977266 L80.2365044,172.895854 L80.2365044,172.895854 Z" id="Imported-Layers" sketch:type="MSShapeGroup"></path>
        </g>
    </g>
</svg>